:SAMPLES-PER-SECOND 30
:FULLY-SPECIFIED
:DEGREES
390
root  -23.5582 17.5882 4.36151 138.965 -86.5281 -145.219
RightUpLeg  -42.6392 -11.7263 -12.545
RightLeg  140.089 22.2981 -15.9934
RightFoot  -19.6443 0.872033 13.7975
RightToes  0.000482159 0.542163 -0.142577
Spine  32.2076 -1.21868 3.54556
Spine1  -2.13986 -1.30973 5.43846
HEad  36.8274 0.911393 -1.8328
LeftShoulder1  0.122167 1.19926 4.16349
LeftArm  -97.7076 -38.8439 13.5317
LeftForeArm  135.586 -81.3755 -99.8455
LeftHand  -0.25398 0.0180481 5.50724
RightShoulder  0.947827 -17.1057 -17.4708
RightArm  -98.1212 50.2557 -15.6419
RightForeArm  32.142 72.1135 33.9601
RightHand  -11.5175 24.5686 -42.8944
LeftUpLeg  -43.9904 0.136478 4.9217
LeftLeg  146.182 -1.40543 0.499846
LeftFoot  -23.7467 -1.41591 -14.2734
LeftToes  1.06244e-005 4.65856e-005 -8.18505e-006
391
root  -23.555 17.5868 4.35061 139.418 -86.528 -145.68
RightUpLeg  -42.6554 -11.7204 -12.5334
RightLeg  140.116 22.3008 -15.98
RightFoot  -19.648 0.873644 13.8136
RightToes  0.000482159 0.542163 -0.142577
Spine  32.24 -1.23037 3.52159
Spine1  -2.13808 -1.33764 5.51659
HEad  37.0926 0.976214 -1.53051
LeftShoulder1  0.119827 1.14617 4.0996
LeftArm  -97.71 -38.8916 13.6971
LeftForeArm  134.451 -81.4004 -98.7458
LeftHand  -0.25398 0.0180481 5.50724
RightShoulder  0.901797 -17.0447 -17.1241
RightArm  -98.1923 50.2787 -15.9435
RightForeArm  32.3414 72.1292 33.9597
RightHand  -11.5951 24.7377 -42.9331
LeftUpLeg  -44.0107 0.149835 4.9569
LeftLeg  146.178 -1.39523 0.49363
LeftFoot  -23.7025 -1.41009 -14.2735
LeftToes  1.06244e-005 4.65856e-005 -8.18505e-006
392
root  -23.5516 17.5843 4.34515 139.545 -86.5389 -145.828
RightUpLeg  -42.6302 -11.7264 -12.5378
RightLeg  140.132 22.3105 -15.9775
RightFoot  -19.6717 0.882158 13.8922
RightToes  0.000482159 0.542163 -0.142577
Spine  32.2658 -1.24002 3.51405
Spine1  -2.11806 -1.3658 5.6382
HEad  37.4341 0.984212 -1.36048
LeftShoulder1  0.114939 1.17632 4.03896
LeftArm  -97.697 -38.9843 13.7315
LeftForeArm  134.033 -81.4044 -98.4107
LeftHand  -0.25398 0.0180481 5.50724
RightShoulder  0.869441 -16.9974 -16.8812
RightArm  -98.3725 50.3805 -16.2005
RightForeArm  32.2183 72.1077 33.927
RightHand  -11.6137 24.7122 -43.029
LeftUpLeg  -44.0242 0.137661 4.96498
LeftLeg  146.178 -1.40367 0.49877
LeftFoot  -23.6542 -1.40566 -14.279
LeftToes  1.06244e-005 4.65856e-005 -8.18505e-006
393
root  -23.5474 17.5817 4.34301 139.994 -86.5476 -146.316
RightUpLeg  -42.5962 -11.7087 -12.5658
RightLeg  140.142 22.3301 -15.985
RightFoot  -19.6871 0.888293 13.9512
RightToes  0.000482159 0.542163 -0.142577
Spine  32.2566 -1.24261 3.52144
Spine1  -2.00917 -1.38577 5.71344
HEad  37.8005 0.969728 -1.10249
LeftShoulder1  0.103265 1.36282 4.1844
LeftArm  -97.5893 -39.0821 13.3924
LeftForeArm  135.104 -81.3811 -99.4591
LeftHand  -0.25398 0.0180481 5.50724
RightShoulder  0.87087 -17.0353 -16.8723
RightArm  -98.5146 50.5133 -16.1538
RightForeArm  32.0651 72.1324 34.0306
RightHand  -11.6488 24.6746 -43.1957
LeftUpLeg  -43.9911 0.163294 4.92619
LeftLeg  146.181 -1.43437 0.517771
LeftFoot  -23.6476 -1.40412 -14.284
LeftToes  1.06244e-005 4.65856e-005 -8.18505e-006
394
root  -23.5421 17.5791 4.34226 140.761 -86.5484 -147.121
RightUpLeg  -42.5945 -11.6924 -12.5796
RightLeg  140.135 22.3976 -16.0342
RightFoot  -19.6868 0.889967 13.9742
RightToes  0.000482159 0.542163 -0.142577
Spine  32.2526 -1.26884 3.59552
Spine1  -1.92712 -1.38448 5.62875
HEad  38.0593 0.956557 -0.641208
LeftShoulder1  0.0940182 1.47672 4.39366
LeftArm  -97.3988 -39.1169 12.9962
LeftForeArm  136.703 -81.3455 -100.962
LeftHand  -0.25398 0.0180481 5.50724
RightShoulder  0.869791 -17.0549 -16.8527
RightArm  -98.4518 50.5574 -15.9688
RightForeArm  32.3217 72.2334 34.2589
RightHand  -11.743 24.825 -43.3127
LeftUpLeg  -43.9491 0.215319 4.87674
LeftLeg  146.185 -1.46225 0.535056
LeftFoot  -23.6686 -1.40103 -14.2837
LeftToes  1.06244e-005 4.65856e-005 -8.18505e-006
395
root  -23.5364 17.5758 4.34221 141.201 -86.5383 -147.587
RightUpLeg  -42.6133 -11.7058 -12.5496
RightLeg  140.107 22.5026 -16.1193
RightFoot  -19.6858 0.891965 14.0029
RightToes  0.000482159 0.542163 -0.142577
Spine  32.2846 -1.32863 3.74882
Spine1  -1.95089 -1.37038 5.46877
HEad  38.1973 0.90665 -0.222333
LeftShoulder1  0.0989169 1.37664 4.3795
LeftArm  -97.2372 -39.0835 12.9332
LeftForeArm  137.711 -81.3173 -101.945
LeftHand  -0.25398 0.0180481 5.50724
RightShoulder  0.853408 -17.0124 -16.7393
RightArm  -98.2222 50.5144 -15.8235
RightForeArm  33.0144 72.3746 34.5078
RightHand  -11.7732 24.9774 -43.2132
LeftUpLeg  -43.9413 0.243105 4.86436
LeftLeg  146.193 -1.46421 0.535985
LeftFoot  -23.6687 -1.39813 -14.2712
LeftToes  1.06244e-005 4.65856e-005 -8.18505e-006
396
root  -23.5303 17.5716 4.34259 141.067 -86.5256 -147.478
RightUpLeg  -42.6175 -11.7223 -12.5154
RightLeg  140.094 22.5618 -16.1663
RightFoot  -19.6813 0.894571 14.0453
RightToes  0.000482159 0.542163 -0.142577
Spine  32.3238 -1.38821 3.89534
Spine1  -1.9927 -1.37022 5.40809
HEad  38.3705 0.745935 -0.0925497
LeftShoulder1  0.109127 1.24478 4.1684
LeftArm  -97.1539 -39.0471 13.0937
LeftForeArm  138.119 -81.2994 -102.419
LeftHand  -0.25398 0.0180481 5.50724
RightShoulder  0.848875 -16.9769 -16.7205
RightArm  -97.9942 50.4774 -15.636
RightForeArm  33.7546 72.5231 34.7732
RightHand  -11.6625 24.8973 -42.9499
LeftUpLeg  -43.9562 0.24469 4.87811
LeftLeg  146.214 -1.46053 0.533043
LeftFoot  -23.6349 -1.39614 -14.2499
LeftToes  1.06244e-005 4.65856e-005 -8.18505e-006
397
root  -23.5237 17.5665 4.34312 140.791 -86.5194 -147.235
RightUpLeg  -42.6028 -11.7104 -12.5207
RightLeg  140.119 22.5431 -16.14
RightFoot  -19.6718 0.896836 14.091
RightToes  0.000482159 0.542163 -0.142577
Spine  32.3332 -1.41141 3.95256
Spine1  -1.96309 -1.38794 5.47913
HEad  38.6656 0.460516 -0.169442
LeftShoulder1  0.111689 1.25922 4.00622
LeftArm  -97.0891 -39.0502 13.1644
LeftForeArm  138.323 -81.2889 -102.678
LeftHand  -0.25398 0.0180481 5.50724
RightShoulder  0.856306 -16.9513 -16.7964
RightArm  -97.868 50.4632 -15.4139
RightForeArm  34.1944 72.672 35.1173
RightHand  -11.5351 24.6945 -42.7889
LeftUpLeg  -43.965 0.251587 4.88622
LeftLeg  146.239 -1.47571 0.541656
LeftFoot  -23.5959 -1.39479 -14.2402
LeftToes  1.06244e-005 4.65856e-005 -8.18505e-006
398
root  -23.517 17.5609 4.34352 140.806 -86.5093 -147.285
RightUpLeg  -42.5887 -11.6865 -12.5324
RightLeg  140.149 22.5296 -16.1138
RightFoot  -19.6831 0.902291 14.1469
RightToes  0.000482159 0.542163 -0.142577
Spine  32.3207 -1.39969 3.94813
Spine1  -1.90206 -1.39611 5.57255
HEad  38.9269 0.124392 -0.250735
LeftShoulder1  0.109525 1.32368 3.95564
LeftArm  -97.0012 -39.0719 13.1341
LeftForeArm  138.407 -81.2856 -102.768
LeftHand  -0.25398 0.0180481 5.50724
RightShoulder  0.841062 -16.8675 -16.7134
RightArm  -97.8237 50.4222 -15.3782
RightForeArm  34.3343 72.8253 35.5562
RightHand  -11.5099 24.5751 -42.8601
LeftUpLeg  -43.962 0.274375 4.89434
LeftLeg  146.258 -1.4944 0.552595
LeftFoot  -23.5714 -1.39448 -14.2559
LeftToes  1.06244e-005 4.65856e-005 -8.18505e-006
399
root  -23.5107 17.5564 4.34351 141.176 -86.4823 -147.693
RightUpLeg  -42.5794 -11.6671 -12.5104
RightLeg  140.148 22.5819 -16.1491
RightFoot  -19.716 0.910147 14.2006
RightToes  0.000482159 0.542163 -0.142577
Spine  32.3168 -1.38521 3.96172
Spine1  -1.87799 -1.38075 5.58587
HEad  38.9315 -0.170271 -0.332007
LeftShoulder1  0.113047 1.27352 3.90343
LeftArm  -96.9109 -39.0735 13.1619
LeftForeArm  138.579 -81.2825 -102.9
LeftHand  -0.25398 0.0180481 5.50724
RightShoulder  0.801562 -16.7427 -16.4454
RightArm  -97.7494 50.3429 -15.4918
RightForeArm  34.4236 72.9904 36.0578
RightHand  -11.5591 24.5584 -43.0477
LeftUpLeg  -43.9475 0.311813 4.90048
LeftLeg  146.271 -1.51082 0.5623
LeftFoot  -23.5494 -1.39178 -14.2702
LeftToes  1.06244e-005 4.65856e-005 -8.18505e-006
400
root  -23.5035 17.5549 4.34276 141.809 -86.4547 -148.38
RightUpLeg  -42.5649 -11.6236 -12.5016
RightLeg  140.139 22.6264 -16.1837
RightFoot  -19.7182 0.912944 14.2347
RightToes  0.000482159 0.542163 -0.142577
Spine  32.3317 -1.39458 4.01256
Spine1  -1.88902 -1.36232 5.49057
HEad  38.6386 -0.383149 -0.546976
LeftShoulder1  0.122502 1.10962 3.84218
LeftArm  -96.8018 -39.0363 13.2201
LeftForeArm  139.229 -81.2715 -103.416
LeftHand  -0.25398 0.0180481 5.50724
RightShoulder  0.775581 -16.6492 -16.2722
RightArm  -97.5244 50.2329 -15.4039
RightForeArm  34.6645 73.149 36.516
RightHand  -11.6203 24.6064 -43.1904
LeftUpLeg  -43.9171 0.361829 4.86532
LeftLeg  146.282 -1.55091 0.58672
LeftFoot  -23.514 -1.38486 -14.2449
LeftToes  1.06244e-005 4.65856e-005 -8.18505e-006
401
root  -23.4945 17.5553 4.34078 142.507 -86.4504 -149.137
RightUpLeg  -42.5493 -11.5428 -12.5592
RightLeg  140.166 22.5833 -16.1401
RightFoot  -19.6703 0.911318 14.2898
RightToes  0.000482159 0.542163 -0.142577
Spine  32.3561 -1.42675 4.07306
Spine1  -1.92338 -1.35678 5.32912
HEad  38.148 -0.545839 -0.946811
LeftShoulder1  0.132256 0.91118 3.85205
LeftArm  -96.6123 -38.9658 13.1797
LeftForeArm  140.181 -81.2556 -104.141
LeftHand  -0.25398 0.0180481 5.50724
RightShoulder  0.773184 -16.5762 -16.2891
RightArm  -97.1984 50.0928 -15.0792
RightForeArm  34.9894 73.239 36.7349
RightHand  -11.6483 24.6816 -43.1852
LeftUpLeg  -43.8895 0.396335 4.79692
LeftLeg  146.289 -1.59634 0.614523
LeftFoot  -23.4666 -1.37433 -14.2001
LeftToes  1.06244e-005 4.65856e-005 -8.18505e-006
402
root  -23.4861 17.5534 4.33875 142.937 -86.4566 -149.602
RightUpLeg  -42.5536 -11.4778 -12.6265
RightLeg  140.213 22.5136 -16.0675
RightFoot  -19.6306 0.914075 14.3916
RightToes  0.000482159 0.542163 -0.142577
Spine  32.3805 -1.46305 4.13377
Spine1  -2.00479 -1.35486 5.20459
HEad  37.5275 -0.726077 -1.46916
LeftShoulder1  0.141575 0.717113 3.87081
LeftArm  -96.371 -38.8984 13.0919
LeftForeArm  140.718 -81.2491 -104.489
LeftHand  -0.25398 0.0180481 5.50724
RightShoulder  0.766779 -16.4795 -16.2838
RightArm  -97.0112 49.988 -14.9166
RightForeArm  35.1801 73.223 36.6337
RightHand  -11.5881 24.6658 -43.0037
LeftUpLeg  -43.9032 0.390146 4.77273
LeftLeg  146.296 -1.59273 0.612027
LeftFoot  -23.417 -1.36859 -14.2025
LeftToes  1.06244e-005 4.65856e-005 -8.18505e-006
